# xmcd
#
# Track frame offsets:
#	150
#	18256
#	33198
#	45299
#	61854
#	76523
#	91911
#	107867
#	130441
#	145523
#	164237
#	179015
# Disc length: 2641 seconds
# Revision: 1
# Processed by: cddbd v1.5.2PL0 Copyright (c) Steve Scherf et al.
#
# Submitted via: libkcddb 0.31
#
DISCID=920a4f0c
DTITLE=Ace Cannon - Godfather of the Saxophone Blues Sax for the Millennium
DYEAR=1900
DGENRE=Blues
TTITLE0=Love Everybody
TTITLE1=Honey Aint Sweet
TTITLE2=Why You Treat Me This Way
TTITLE3=Chestereen
TTITLE4=Promise Me Love
TTITLE5=Stormy Monday
TTITLE6=Chicken Scratch
TTITLE7=My Dear Old Dad
TTITLE8=Going to St Louis
TTITLE9=Barbara Ann
TTITLE10=Just A Little Bit
TTITLE11=Im Ready
EXTD=
EXTT0=
EXTT1=
EXTT2=
EXTT3=
EXTT4=
EXTT5=
EXTT6=
EXTT7=
EXTT8=
EXTT9=
EXTT10=
EXTT11=
PLAYORDER=
